# xmcd
#
# Track frame offsets:
#	150
#	15780
#	28192
#	41598
#	54799
#	64769
#	80803
#	93692
#	108521
#	124223
#	139122
#	146597
#	156960
#	169345
#
# Disc length: 2452 seconds
#
# Revision: 1
# Processed by: cddbd v1.5.1PL0 Copyright (c) Steve Scherf et al.
# Submitted via: audiograbber 1.83.01
#
DISCID=bf09920e
DTITLE=Tião Carreiro and Pardinho - de 1964 a 1967
DYEAR=2005
DGENRE=Country
TTITLE0=Cabelo Loiro
TTITLE1=Tem e não Tem
TTITLE2=Tudo Serve
TTITLE3=Boi "Sete Ouro"
TTITLE4=Não é mole não
TTITLE5=Ladrão de Terra
TTITLE6=Tenente Mineirinho
TTITLE7=Boi Soberano
TTITLE8=A Morte do Carreiro
TTITLE9=Pai João
TTITLE10=Pagode
TTITLE11=Saudade
TTITLE12=Ditado Sertanejo
TTITLE13=Mariquinha
EXTD=
EXTT0=
EXTT1=
EXTT2=
EXTT3=
EXTT4=
EXTT5=
EXTT6=
EXTT7=
EXTT8=
EXTT9=
EXTT10=
EXTT11=
EXTT12=
EXTT13=
PLAYORDER=
